<?xml version="1.0" standalone="no"?>
<!DOCTYPE svg PUBLIC "-//W3C//DTD SVG 20010904//EN"
 "http://www.w3.org/TR/2001/REC-SVG-20010904/DTD/svg10.dtd">
<svg version="1.0" xmlns="http://www.w3.org/2000/svg"
 width="814.000000pt" height="545.000000pt" viewBox="0 0 814.000000 545.000000"
 preserveAspectRatio="xMidYMid meet">

<g transform="translate(0.000000,545.000000) scale(0.100000,-0.100000)"
fill="#000000" stroke="none">
<path d="M6832 3898 c-5 -7 -14 -46 -17 -86 -7 -67 -10 -74 -36 -87 -45 -24
-56 -18 -83 40 -27 60 -49 70 -81 35 -16 -17 -16 -26 -5 -104 l13 -85 -27 -36
c-15 -19 -32 -35 -38 -35 -5 0 -24 11 -40 25 -17 14 -38 25 -47 23 -15 -3 -16
-94 -19 -1031 l-2 -1027 100 0 100 0 -20 41 c-57 111 -78 336 -45 478 32 136
114 259 198 300 92 44 203 19 273 -62 142 -165 177 -480 78 -705 l-23 -53 71
3 72 3 22 65 c12 36 28 96 34 133 17 94 8 353 -14 432 -24 85 -81 196 -121
236 -40 40 -42 52 -15 97 29 46 45 49 86 12 34 -30 37 -30 55 -14 27 25 24 84
-7 146 -21 41 -25 59 -20 92 11 66 29 86 80 86 42 0 45 2 56 36 16 46 1 80
-49 115 -32 22 -40 35 -45 71 -9 58 2 84 54 132 39 36 41 40 35 80 -10 57 -18
64 -69 59 -41 -5 -45 -3 -59 23 -30 58 -29 85 3 153 27 56 29 68 20 97 -19 56
-36 62 -73 26 -41 -40 -58 -40 -92 0 -25 29 -27 37 -21 87 4 30 9 65 12 76 6
23 -29 75 -50 75 -6 0 -26 -29 -44 -65 -23 -48 -37 -65 -52 -65 -29 0 -58 33
-66 77 -18 107 -19 108 -45 111 -14 2 -31 -3 -37 -10z m118 -344 c100 -30 194
-154 237 -314 24 -91 24 -310 -1 -400 -71 -258 -240 -386 -404 -304 -128 64
-214 235 -228 454 -17 262 93 508 252 565 51 18 79 18 144 -1z"/>
<path d="M6814 3392 c-49 -23 -99 -85 -125 -152 l-19 -50 43 31 c60 44 102 59
164 59 65 0 112 -18 171 -67 41 -34 44 -35 37 -12 -4 13 -22 51 -39 84 -57
105 -147 146 -232 107z"/>
<path d="M6830 3220 c-13 -8 -13 -10 1 -10 20 0 33 -41 17 -55 -8 -7 -9 -6 -4
3 4 7 2 12 -6 12 -22 0 -41 -17 -33 -30 6 -9 10 -9 17 1 8 11 9 11 5 -1 -2 -8
-10 -15 -18 -15 -39 0 -66 -65 -54 -128 5 -25 11 -34 21 -30 8 3 14 4 14 2 0
-2 6 -22 14 -43 l14 -40 17 35 c21 40 28 86 15 94 -6 3 -10 14 -10 23 0 14 2
15 10 2 5 -8 12 -11 17 -7 4 4 2 17 -5 27 -16 27 -15 35 3 20 8 -7 15 -18 15
-25 0 -7 7 -16 16 -19 8 -3 12 -11 8 -17 -4 -8 -3 -9 4 -5 7 4 12 14 12 22 0
8 5 14 10 14 6 0 10 -8 10 -19 0 -20 27 -48 37 -37 3 3 2 6 -4 6 -15 0 -12 33
7 60 14 21 15 31 6 63 -6 20 -24 53 -39 72 -23 29 -35 35 -65 35 -20 0 -44 -5
-52 -10z m-22 -132 c16 -16 15 -28 0 -28 -22 0 -41 17 -34 29 9 14 19 14 34
-1z"/>
<path d="M6992 3035 c0 -16 2 -22 5 -12 2 9 2 23 0 30 -3 6 -5 -1 -5 -18z"/>
<path d="M6952 2964 c-26 -18 -27 -57 -1 -62 11 -2 20 8 28 29 19 54 13 61
-27 33z"/>
<path d="M7061 2876 c-12 -13 -45 -36 -73 -51 -91 -50 -197 -35 -287 41 l-31
26 9 -26 c34 -89 102 -168 156 -182 71 -18 151 21 200 94 21 32 59 122 51 122
-1 0 -13 -11 -25 -24z"/>
<path d="M6845 2870 c-10 -16 4 -30 29 -30 24 0 81 39 59 40 -7 0 -13 -5 -13
-10 0 -7 -6 -7 -19 0 -25 13 -48 13 -56 0z"/>
<path d="M6095 2595 c0 -682 1 -960 2 -617 2 343 2 901 0 1240 -1 339 -2 59
-2 -623z"/>
<path d="M5144 3705 c-4 -8 -9 -39 -13 -68 -5 -44 -9 -52 -28 -55 -18 -3 -23
2 -23 17 0 31 -31 101 -44 101 -26 0 -36 -26 -36 -90 0 -61 -10 -90 -32 -90
-4 0 -8 6 -8 13 0 7 -12 30 -26 51 l-26 38 -21 -20 c-19 -19 -19 -25 -8 -82
12 -58 8 -100 -8 -100 -4 0 -20 14 -36 30 -34 35 -46 37 -63 10 -10 -17 -9
-30 8 -80 22 -66 24 -79 11 -99 -7 -11 -13 -11 -32 3 -38 26 -66 21 -74 -13
-7 -32 5 -62 37 -97 14 -15 17 -29 12 -48 -5 -23 -11 -26 -49 -26 -30 0 -45
-5 -49 -16 -14 -35 -5 -63 29 -93 40 -35 50 -91 16 -91 -32 0 -71 -39 -71 -70
0 -22 7 -33 30 -45 16 -8 36 -15 45 -15 10 0 15 -10 15 -32 0 -23 -9 -40 -35
-64 -61 -55 -39 -125 34 -109 25 5 29 2 35 -19 4 -18 -2 -38 -24 -72 -33 -53
-36 -71 -17 -99 13 -17 16 -17 47 -1 18 9 37 16 42 16 18 0 26 -45 13 -70 -7
-14 -17 -42 -23 -62 -9 -31 -7 -42 7 -59 l17 -22 36 36 c34 34 37 35 52 18 13
-14 14 -24 5 -54 -5 -21 -9 -57 -7 -80 4 -60 29 -61 63 -3 41 71 60 58 56 -36
-2 -59 9 -88 34 -88 11 0 35 50 50 107 2 6 13 9 24 6 16 -4 21 -13 21 -37 0
-101 48 -144 69 -62 6 25 11 56 11 69 0 20 16 37 35 37 1 0 7 -19 13 -42 14
-56 34 -83 56 -75 13 5 16 21 16 79 0 61 3 75 19 85 16 10 21 7 36 -28 24 -52
40 -65 60 -49 18 15 19 55 4 116 -9 34 -9 47 1 59 11 13 18 10 52 -21 38 -34
40 -34 54 -17 18 25 17 44 -5 104 -15 37 -17 57 -11 75 9 23 11 24 32 10 47
-29 65 -29 76 2 10 29 -3 66 -35 104 -8 9 -13 29 -11 45 3 29 3 29 74 32 16 1
23 10 28 34 6 28 2 36 -34 70 -43 41 -54 83 -22 93 69 23 72 25 72 66 0 37 -3
40 -45 59 -57 25 -61 55 -11 93 41 31 50 54 36 91 -9 24 -14 27 -50 23 -60 -5
-66 24 -20 100 26 41 29 53 21 75 -12 30 -37 35 -67 12 -26 -19 -31 -19 -44 6
-9 17 -7 31 9 69 25 58 27 93 6 110 -13 11 -21 8 -51 -20 -31 -31 -36 -33 -50
-18 -13 13 -14 22 -5 54 16 58 14 113 -4 121 -20 7 -49 -19 -65 -57 -10 -24
-16 -28 -30 -20 -15 8 -18 22 -17 81 1 51 -3 73 -13 80 -25 15 -34 5 -55 -54
-24 -70 -46 -73 -57 -7 -13 80 -17 90 -39 90 -11 0 -22 -7 -25 -15z m141 -224
c163 -78 276 -293 299 -571 9 -102 -10 -265 -41 -363 -76 -242 -210 -378 -375
-378 -169 -1 -320 163 -390 421 -30 114 -33 354 -5 473 80 339 301 520 512
418z"/>
<path d="M5094 3412 c-128 -45 -220 -174 -271 -381 -25 -102 -23 -304 5 -409
124 -468 511 -498 664 -52 31 92 32 100 33 260 0 142 -3 176 -23 243 -74 257
-243 397 -408 339z m26 -245 c-4 -81 -11 -152 -16 -157 -8 -8 -35 11 -158 107
-27 22 -28 25 -15 54 29 70 172 187 190 155 4 -6 3 -78 -1 -159z m151 146 c63
-34 139 -125 139 -165 0 -18 -159 -141 -174 -135 -17 7 -36 327 -20 327 4 0
28 -12 55 -27z m-307 -381 c42 -45 76 -90 76 -100 0 -9 -36 -55 -80 -102 -63
-68 -81 -82 -89 -70 -30 45 -22 369 9 358 5 -2 42 -40 84 -86z m514 -41 c6
-137 -4 -241 -23 -241 -8 0 -18 6 -22 14 -4 7 -38 46 -75 86 -38 40 -68 77
-68 84 0 6 37 51 81 99 57 61 85 85 92 78 6 -6 13 -60 15 -120z m-339 72 c6
-12 4 -28 -10 -55 -21 -41 -24 -83 -9 -122 10 -28 42 -49 63 -40 40 15 54 112
23 159 -20 30 -18 70 3 70 52 0 77 -174 35 -245 -27 -48 -65 -65 -101 -48 -47
23 -67 62 -71 137 -3 53 0 79 16 115 22 49 35 57 51 29z m-25 -325 c12 -57 16
-308 6 -308 -59 0 -216 160 -192 196 11 16 164 134 173 134 5 0 11 -10 13 -22z
m222 -45 c46 -36 74 -65 74 -76 0 -47 -112 -161 -179 -182 l-24 -7 8 158 c4
88 9 163 12 167 8 13 29 1 109 -60z"/>
<path d="M2260 3231 l-25 -7 0 -339 0 -340 30 0 30 0 3 138 3 137 39 0 c21 0
42 -4 45 -10 3 -5 19 -58 36 -117 40 -149 43 -153 79 -153 39 0 39 12 -5 174
l-36 128 24 32 c34 45 47 90 46 165 0 86 -24 149 -68 178 -28 19 -47 23 -105
22 -39 -1 -82 -4 -96 -8z m177 -128 c28 -42 24 -125 -6 -157 -20 -22 -33 -26
-78 -26 l-53 0 0 105 0 105 60 0 c54 0 61 -3 77 -27z"/>
<path d="M2958 3149 c-13 -7 -18 -23 -18 -54 0 -38 -3 -45 -20 -45 -17 0 -20
-7 -20 -49 0 -40 3 -50 20 -54 19 -5 20 -14 20 -166 0 -219 19 -261 111 -246
l39 7 0 48 0 49 -37 3 -38 3 -3 153 -3 152 41 0 40 0 0 50 0 50 -39 0 -40 0
-3 52 c-3 56 -16 68 -50 47z"/>
<path d="M4338 3149 c-13 -7 -18 -23 -18 -54 0 -38 -3 -45 -20 -45 -17 0 -20
-7 -20 -50 0 -43 3 -50 20 -50 19 0 20 -7 21 -162 0 -99 5 -177 12 -198 16
-45 52 -65 100 -56 37 7 37 7 37 56 l0 49 -37 3 -38 3 -3 153 -3 152 41 0 40
0 0 50 0 50 -40 0 -40 0 0 55 c0 58 -12 68 -52 44z"/>
<path d="M2647 3030 c-48 -41 -62 -99 -62 -245 0 -107 3 -125 25 -170 31 -61
81 -91 137 -80 82 15 117 104 111 284 -3 91 -8 126 -25 163 -37 81 -123 104
-186 48z m103 -80 c27 -15 40 -64 40 -157 0 -100 -17 -149 -55 -159 -51 -13
-85 48 -85 156 0 136 36 194 100 160z"/>
<path d="M3202 3050 c-46 -11 -54 -21 -50 -66 l3 -39 72 4 c72 3 73 3 83 -25
21 -53 11 -68 -49 -76 -98 -12 -138 -69 -127 -181 13 -126 67 -162 167 -111
22 11 28 11 42 -3 9 -9 23 -13 32 -9 16 6 17 25 13 214 -3 130 -10 219 -18
240 -20 54 -80 73 -168 52z m118 -340 c0 -56 -2 -61 -26 -70 -62 -24 -94 -4
-94 57 0 50 25 69 93 72 27 1 27 0 27 -59z"/>
<path d="M3738 3048 c-37 -10 -38 -11 -38 -58 l0 -49 68 6 c78 6 95 -5 90 -59
-3 -28 -7 -33 -33 -36 -113 -12 -145 -46 -145 -154 0 -128 45 -184 127 -158
21 7 43 16 48 20 6 5 19 2 29 -6 45 -32 46 -26 46 189 0 111 -5 219 -10 239
-20 71 -81 93 -182 66z m122 -338 c0 -66 -12 -80 -68 -80 -34 0 -42 14 -42 70
0 49 21 65 88 69 20 1 22 -3 22 -59z"/>
<path d="M4068 3044 c-16 -8 -38 -34 -50 -57 -21 -38 -23 -55 -23 -192 0 -141
1 -153 25 -195 34 -60 76 -76 154 -60 l56 11 0 50 c0 27 -2 49 -5 49 -2 0 -26
-5 -54 -11 -92 -19 -115 20 -110 185 4 90 6 99 29 118 24 19 41 20 118 1 21
-5 22 -2 22 45 0 50 0 51 -37 61 -52 15 -93 13 -125 -5z"/>
<path d="M3472 2798 l3 -253 30 0 30 0 3 174 c3 190 5 197 63 221 26 11 29 17
29 61 0 57 -13 62 -59 24 l-30 -26 -3 23 c-2 18 -10 24 -36 26 l-32 3 2 -253z"/>
<path d="M1585 2196 c-14 -10 -20 -30 -23 -75 -4 -51 -7 -61 -23 -61 -25 0
-24 -20 1 -27 19 -5 20 -14 20 -134 0 -79 4 -129 10 -129 6 0 10 50 10 130 0
123 1 130 20 130 11 0 20 7 20 15 0 8 -9 15 -20 15 -17 0 -20 7 -20 41 0 47
14 79 36 79 9 0 14 5 12 12 -6 18 -22 20 -43 4z"/>
<path d="M760 1985 c0 -137 4 -215 10 -215 6 0 10 78 10 215 0 137 -4 215 -10
215 -6 0 -10 -78 -10 -215z"/>
<path d="M1040 1985 c0 -137 4 -215 10 -215 6 0 10 9 10 21 0 18 2 18 23 -7
33 -38 72 -28 94 24 31 73 12 252 -26 252 -5 0 -16 3 -25 6 -9 4 -25 -5 -41
-22 l-25 -27 0 92 c0 54 -4 91 -10 91 -6 0 -10 -78 -10 -215z m117 25 c7 -14
13 -56 13 -95 0 -38 -6 -81 -13 -95 -18 -36 -52 -38 -74 -4 -25 39 -25 159 0
198 22 34 56 32 74 -4z"/>
<path d="M604 2170 c-115 -46 -124 -338 -13 -396 41 -21 99 -12 99 16 0 16 -4
17 -28 8 -40 -15 -82 7 -107 57 -28 57 -27 175 3 231 24 48 67 69 107 54 21
-8 25 -7 25 9 0 27 -45 38 -86 21z"/>
<path d="M2327 2169 c-23 -13 -47 -62 -47 -94 0 -35 21 -73 60 -110 50 -47 63
-80 50 -121 -14 -43 -48 -61 -80 -44 -12 6 -24 9 -27 6 -12 -11 8 -36 33 -42
38 -10 75 14 92 58 22 58 9 101 -54 169 -61 67 -68 96 -29 135 18 18 31 23 49
18 30 -7 43 12 17 25 -24 13 -41 13 -64 0z"/>
<path d="M1770 1970 l0 -200 41 0 c32 0 47 6 71 30 28 29 30 35 26 87 -4 41
-11 61 -25 73 -20 16 -20 17 -2 39 13 16 19 39 19 73 0 65 -30 98 -90 98 l-40
0 0 -200z m88 154 c49 -34 17 -134 -43 -134 -24 0 -25 2 -25 75 0 71 1 75 23
75 12 0 33 -7 45 -16z m12 -184 c22 -22 26 -70 9 -103 -16 -29 -28 -37 -61
-37 l-28 0 0 80 0 80 30 0 c17 0 39 -9 50 -20z"/>
<path d="M1970 1970 c0 -127 4 -200 10 -200 6 0 10 66 10 177 0 97 2 174 6
171 3 -3 25 -81 48 -172 24 -92 47 -170 50 -174 12 -12 21 14 61 178 21 88 42
160 45 160 3 0 4 -76 2 -170 -3 -149 -1 -170 12 -170 14 0 16 25 16 200 0 188
-1 200 -19 200 -15 0 -25 -27 -62 -170 -24 -93 -46 -170 -49 -170 -3 0 -25 77
-50 170 -36 141 -47 170 -62 170 -17 0 -18 -14 -18 -200z"/>
<path d="M2550 2160 c0 -5 20 -58 45 -119 41 -99 45 -118 45 -190 0 -47 4 -81
10 -81 6 0 10 36 10 88 0 72 5 100 26 153 61 149 64 159 51 159 -6 0 -27 -39
-46 -88 -18 -48 -37 -91 -41 -95 -4 -5 -24 35 -44 87 -21 53 -42 96 -47 96 -5
0 -9 -4 -9 -10z"/>
<path d="M2790 1970 l0 -200 66 0 c48 0 65 3 62 13 -3 7 -26 13 -56 15 l-52 3
0 80 0 79 50 0 c38 0 50 4 50 15 0 11 -12 15 -50 15 l-50 0 0 75 0 75 50 0
c38 0 50 4 50 15 0 12 -13 15 -60 15 l-60 0 0 -200z"/>
<path d="M2970 1970 l0 -200 60 0 c47 0 60 3 60 15 0 11 -12 15 -50 15 l-50 0
0 185 c0 117 -4 185 -10 185 -6 0 -10 -73 -10 -200z"/>
<path d="M3206 2158 c-9 -26 -96 -370 -96 -379 0 -5 4 -9 9 -9 4 0 14 24 22
53 l14 52 64 0 65 0 12 -48 c7 -27 15 -51 18 -55 19 -18 12 25 -32 199 -43
175 -64 225 -76 187z m42 -136 c12 -53 22 -100 22 -104 0 -5 -24 -8 -54 -8
l-53 0 25 105 c15 58 29 105 32 105 3 0 15 -44 28 -98z"/>
<path d="M3370 1970 c0 -171 2 -200 15 -200 12 0 15 17 15 95 l0 95 65 0 65 0
0 -95 c0 -57 4 -95 10 -95 6 0 10 73 10 200 0 127 -4 200 -10 200 -6 0 -10
-37 -10 -90 l0 -90 -65 0 -65 0 0 90 c0 73 -3 90 -15 90 -13 0 -15 -29 -15
-200z"/>
<path d="M3686 2158 c-9 -26 -96 -370 -96 -379 0 -5 4 -9 9 -9 4 0 14 24 22
53 l14 52 64 0 65 0 12 -48 c7 -27 15 -51 18 -55 19 -18 12 25 -32 199 -43
175 -64 225 -76 187z m44 -146 c12 -51 20 -95 17 -98 -2 -3 -27 -4 -54 -2
l-49 3 25 103 c13 56 27 99 31 95 4 -4 18 -50 30 -101z"/>
<path d="M3850 1970 c0 -127 4 -200 10 -200 6 0 10 64 10 172 0 94 3 169 6
166 3 -3 31 -79 64 -169 82 -231 90 -228 90 30 0 124 -4 201 -10 201 -6 0 -11
-70 -12 -176 l-3 -177 -44 124 c-76 214 -82 229 -97 229 -12 0 -14 -33 -14
-200z"/>
<path d="M4100 1970 c0 -122 4 -200 10 -200 5 0 11 44 12 98 l3 97 59 -97 c32
-54 65 -98 72 -98 8 0 14 2 14 4 0 3 -27 48 -60 100 -33 53 -60 100 -60 105 0
6 25 49 55 96 60 92 61 95 43 95 -7 0 -38 -41 -68 -91 l-55 -90 -3 91 c-1 49
-7 90 -12 90 -6 0 -10 -79 -10 -200z"/>
<path d="M4343 1970 c-28 -110 -47 -200 -42 -200 11 0 13 6 29 68 l11 42 64 0
64 0 12 -55 c7 -32 18 -55 25 -55 7 0 12 6 9 13 -2 6 -20 80 -40 162 -52 218
-55 225 -69 225 -8 0 -30 -69 -63 -200z m91 51 c14 -57 26 -106 26 -107 0 -2
-25 -4 -55 -4 -30 0 -55 2 -55 5 0 13 53 215 56 213 1 -2 14 -50 28 -107z"/>
<path d="M1377 2050 c-34 -27 -51 -89 -44 -160 6 -71 23 -106 57 -120 53 -22
94 20 106 107 16 128 -51 226 -119 173z m59 -18 c37 -25 51 -148 23 -207 -19
-40 -61 -46 -83 -12 -56 85 -7 264 60 219z"/>
<path d="M840 1968 c1 -115 12 -178 36 -195 26 -19 42 -16 69 13 24 26 25 26
25 5 0 -11 5 -21 11 -21 6 0 8 7 5 16 -3 9 -6 74 -6 145 0 84 -4 128 -10 124
-6 -3 -10 -53 -10 -113 0 -114 -12 -152 -49 -152 -37 0 -46 28 -50 152 -4 139
-21 160 -21 26z"/>
</g>
</svg>
